<svg width="176" height="23" viewBox="0 0 176 23" fill="none" xmlns="http://www.w3.org/2000/svg">
<path d="M4.088 7.92H4.844C5.148 7.92 5.4 7.88 5.6 7.8C5.8 7.712 5.972 7.576 6.116 7.392L10.904 1.332C11.104 1.076 11.312 0.899999 11.528 0.803999C11.752 0.699999 12.032 0.647999 12.368 0.647999H15.152L9.308 7.86C9.124 8.084 8.948 8.272 8.78 8.424C8.612 8.576 8.432 8.7 8.24 8.796C8.504 8.892 8.74 9.028 8.948 9.204C9.164 9.38 9.372 9.604 9.572 9.876L15.596 18H12.74C12.356 18 12.068 17.948 11.876 17.844C11.692 17.732 11.536 17.572 11.408 17.364L6.5 10.956C6.34 10.748 6.16 10.6 5.96 10.512C5.76 10.416 5.476 10.368 5.108 10.368H4.088V18H0.86V0.636H4.088V7.92ZM21.9142 5.496C22.6902 5.496 23.4022 5.62 24.0502 5.868C24.7062 6.116 25.2702 6.48 25.7422 6.96C26.2142 7.432 26.5822 8.016 26.8462 8.712C27.1102 9.4 27.2422 10.188 27.2422 11.076C27.2422 11.3 27.2302 11.488 27.2062 11.64C27.1902 11.784 27.1542 11.9 27.0982 11.988C27.0502 12.068 26.9822 12.128 26.8942 12.168C26.8062 12.2 26.6942 12.216 26.5582 12.216H18.9502C19.0382 13.48 19.3782 14.408 19.9702 15C20.5622 15.592 21.3462 15.888 22.3222 15.888C22.8022 15.888 23.2142 15.832 23.5582 15.72C23.9102 15.608 24.2142 15.484 24.4702 15.348C24.7342 15.212 24.9622 15.088 25.1542 14.976C25.3542 14.864 25.5462 14.808 25.7302 14.808C25.8502 14.808 25.9542 14.832 26.0422 14.88C26.1302 14.928 26.2062 14.996 26.2702 15.084L27.1342 16.164C26.8062 16.548 26.4382 16.872 26.0302 17.136C25.6222 17.392 25.1942 17.6 24.7462 17.76C24.3062 17.912 23.8542 18.02 23.3902 18.084C22.9342 18.148 22.4902 18.18 22.0582 18.18C21.2022 18.18 20.4062 18.04 19.6702 17.76C18.9342 17.472 18.2942 17.052 17.7502 16.5C17.2062 15.94 16.7782 15.252 16.4662 14.436C16.1542 13.612 15.9982 12.66 15.9982 11.58C15.9982 10.74 16.1342 9.952 16.4062 9.216C16.6782 8.472 17.0662 7.828 17.5702 7.284C18.0822 6.732 18.7022 6.296 19.4302 5.976C20.1662 5.656 20.9942 5.496 21.9142 5.496ZM21.9742 7.62C21.1102 7.62 20.4342 7.864 19.9462 8.352C19.4582 8.84 19.1462 9.532 19.0102 10.428H24.5782C24.5782 10.044 24.5262 9.684 24.4222 9.348C24.3182 9.004 24.1582 8.704 23.9422 8.448C23.7262 8.192 23.4542 7.992 23.1262 7.848C22.7982 7.696 22.4142 7.62 21.9742 7.62ZM35.4161 18H32.7281L27.8321 5.688H30.2921C30.5081 5.688 30.6881 5.74 30.8321 5.844C30.9841 5.948 31.0881 6.08 31.1441 6.24L33.5201 12.816C33.6561 13.2 33.7681 13.576 33.8561 13.944C33.9521 14.312 34.0361 14.68 34.1081 15.048C34.1801 14.68 34.2601 14.312 34.3481 13.944C34.4441 13.576 34.5641 13.2 34.7081 12.816L37.1441 6.24C37.2001 6.08 37.3001 5.948 37.4441 5.844C37.5881 5.74 37.7601 5.688 37.9601 5.688H40.3001L35.4161 18ZM45.2009 5.688V18H42.2369V5.688H45.2009ZM45.6449 2.1C45.6449 2.356 45.5929 2.596 45.4889 2.82C45.3849 3.044 45.2449 3.24 45.0689 3.408C44.9009 3.576 44.7009 3.712 44.4689 3.816C44.2369 3.912 43.9889 3.96 43.7249 3.96C43.4689 3.96 43.2249 3.912 42.9929 3.816C42.7689 3.712 42.5729 3.576 42.4049 3.408C42.2369 3.24 42.1009 3.044 41.9969 2.82C41.9009 2.596 41.8529 2.356 41.8529 2.1C41.8529 1.836 41.9009 1.588 41.9969 1.356C42.1009 1.124 42.2369 0.924 42.4049 0.756C42.5729 0.587999 42.7689 0.455999 42.9929 0.36C43.2249 0.256 43.4689 0.204 43.7249 0.204C43.9889 0.204 44.2369 0.256 44.4689 0.36C44.7009 0.455999 44.9009 0.587999 45.0689 0.756C45.2449 0.924 45.3849 1.124 45.4889 1.356C45.5929 1.588 45.6449 1.836 45.6449 2.1ZM48.5606 18V5.688H50.3726C50.7566 5.688 51.0086 5.868 51.1286 6.228L51.3326 7.2C51.5806 6.944 51.8406 6.712 52.1126 6.504C52.3926 6.296 52.6846 6.116 52.9886 5.964C53.3006 5.812 53.6326 5.696 53.9846 5.616C54.3366 5.536 54.7206 5.496 55.1366 5.496C55.8086 5.496 56.4046 5.612 56.9246 5.844C57.4446 6.068 57.8766 6.388 58.2206 6.804C58.5726 7.212 58.8366 7.704 59.0126 8.28C59.1966 8.848 59.2886 9.476 59.2886 10.164V18H56.3246V10.164C56.3246 9.412 56.1486 8.832 55.7966 8.424C55.4526 8.008 54.9326 7.8 54.2366 7.8C53.7246 7.8 53.2446 7.916 52.7966 8.148C52.3486 8.38 51.9246 8.696 51.5246 9.096V18H48.5606ZM75.9378 13.056C76.0578 13.28 76.1618 13.52 76.2498 13.776C76.2978 13.648 76.3458 13.524 76.3938 13.404C76.4498 13.276 76.5098 13.156 76.5738 13.044L83.2458 1.248C83.3098 1.144 83.3738 1.08 83.4378 1.056C83.5018 1.032 83.5898 1.02 83.7018 1.02H84.5538V18H83.4738V3.528C83.4738 3.32 83.4858 3.1 83.5098 2.868L76.8258 14.736C76.7138 14.944 76.5538 15.048 76.3458 15.048H76.1538C75.9538 15.048 75.7938 14.944 75.6738 14.736L68.8098 2.856C68.8338 3.088 68.8458 3.312 68.8458 3.528V18H67.7778V1.02H68.6178C68.7298 1.02 68.8178 1.032 68.8818 1.056C68.9538 1.08 69.0218 1.144 69.0858 1.248L75.9378 13.056ZM96.6421 18C96.4021 18 96.2541 17.888 96.1981 17.664L96.0301 16.14C95.7021 16.46 95.3741 16.748 95.0461 17.004C94.7261 17.26 94.3901 17.476 94.0381 17.652C93.6861 17.828 93.3061 17.96 92.8981 18.048C92.4901 18.144 92.0421 18.192 91.5541 18.192C91.1461 18.192 90.7501 18.132 90.3661 18.012C89.9821 17.892 89.6421 17.708 89.3461 17.46C89.0501 17.212 88.8101 16.896 88.6261 16.512C88.4501 16.12 88.3621 15.652 88.3621 15.108C88.3621 14.604 88.5061 14.136 88.7941 13.704C89.0821 13.272 89.5301 12.896 90.1381 12.576C90.7541 12.256 91.5421 12 92.5021 11.808C93.4701 11.616 94.6301 11.504 95.9821 11.472V10.224C95.9821 9.12 95.7421 8.272 95.2621 7.68C94.7901 7.08 94.0861 6.78 93.1501 6.78C92.5741 6.78 92.0821 6.86 91.6741 7.02C91.2741 7.18 90.9341 7.356 90.6541 7.548C90.3741 7.74 90.1461 7.916 89.9701 8.076C89.7941 8.236 89.6461 8.316 89.5261 8.316C89.3661 8.316 89.2461 8.244 89.1661 8.1L88.9621 7.752C89.5861 7.128 90.2421 6.656 90.9301 6.336C91.6181 6.016 92.3981 5.856 93.2701 5.856C93.9101 5.856 94.4701 5.96 94.9501 6.168C95.4301 6.368 95.8261 6.66 96.1381 7.044C96.4581 7.42 96.6981 7.88 96.8581 8.424C97.0181 8.96 97.0981 9.56 97.0981 10.224V18H96.6421ZM91.8421 17.364C92.3061 17.364 92.7301 17.316 93.1141 17.22C93.5061 17.116 93.8661 16.976 94.1941 16.8C94.5301 16.616 94.8421 16.4 95.1301 16.152C95.4181 15.904 95.7021 15.636 95.9821 15.348V12.24C94.8461 12.272 93.8661 12.36 93.0421 12.504C92.2261 12.64 91.5501 12.828 91.0141 13.068C90.4861 13.308 90.0941 13.596 89.8381 13.932C89.5901 14.26 89.4661 14.636 89.4661 15.06C89.4661 15.46 89.5301 15.808 89.6581 16.104C89.7941 16.392 89.9701 16.632 90.1861 16.824C90.4021 17.008 90.6541 17.144 90.9421 17.232C91.2301 17.32 91.5301 17.364 91.8421 17.364ZM100.694 18V6.06H101.294C101.43 6.06 101.526 6.088 101.582 6.144C101.646 6.2 101.682 6.296 101.69 6.432L101.786 8.952C102.17 7.984 102.682 7.228 103.322 6.684C103.962 6.132 104.75 5.856 105.686 5.856C106.046 5.856 106.378 5.896 106.682 5.976C106.986 6.048 107.274 6.156 107.546 6.3L107.39 7.092C107.366 7.22 107.286 7.284 107.15 7.284C107.102 7.284 107.034 7.268 106.946 7.236C106.858 7.204 106.746 7.168 106.61 7.128C106.482 7.088 106.322 7.052 106.13 7.02C105.938 6.988 105.718 6.972 105.47 6.972C104.566 6.972 103.822 7.252 103.238 7.812C102.662 8.372 102.194 9.18 101.834 10.236V18H100.694ZM110.233 18V6.06H110.857C111.065 6.06 111.185 6.16 111.217 6.36L111.325 8.088C111.557 7.76 111.805 7.46 112.069 7.188C112.333 6.916 112.613 6.684 112.909 6.492C113.213 6.292 113.533 6.14 113.869 6.036C114.213 5.924 114.573 5.868 114.949 5.868C115.821 5.868 116.517 6.124 117.037 6.636C117.557 7.14 117.909 7.844 118.093 8.748C118.237 8.252 118.437 7.824 118.693 7.464C118.957 7.104 119.257 6.808 119.593 6.576C119.929 6.336 120.293 6.16 120.685 6.048C121.085 5.928 121.493 5.868 121.909 5.868C122.501 5.868 123.033 5.968 123.505 6.168C123.977 6.36 124.377 6.648 124.705 7.032C125.041 7.416 125.297 7.888 125.473 8.448C125.649 9.008 125.737 9.648 125.737 10.368V18H124.585V10.368C124.585 9.2 124.333 8.312 123.829 7.704C123.325 7.088 122.605 6.78 121.669 6.78C121.253 6.78 120.853 6.856 120.469 7.008C120.093 7.16 119.757 7.388 119.461 7.692C119.173 7.988 118.941 8.36 118.765 8.808C118.597 9.256 118.513 9.776 118.513 10.368V18H117.373V10.368C117.373 9.208 117.141 8.32 116.677 7.704C116.213 7.088 115.537 6.78 114.649 6.78C114.001 6.78 113.401 6.976 112.849 7.368C112.297 7.752 111.805 8.288 111.373 8.976V18H110.233ZM133.883 5.868C134.739 5.868 135.503 6.016 136.175 6.312C136.855 6.6 137.427 7.012 137.891 7.548C138.355 8.084 138.707 8.732 138.947 9.492C139.195 10.244 139.319 11.088 139.319 12.024C139.319 12.96 139.195 13.804 138.947 14.556C138.707 15.308 138.355 15.952 137.891 16.488C137.427 17.024 136.855 17.436 136.175 17.724C135.503 18.012 134.739 18.156 133.883 18.156C133.027 18.156 132.259 18.012 131.579 17.724C130.907 17.436 130.335 17.024 129.863 16.488C129.399 15.952 129.043 15.308 128.795 14.556C128.555 13.804 128.435 12.96 128.435 12.024C128.435 11.088 128.555 10.244 128.795 9.492C129.043 8.732 129.399 8.084 129.863 7.548C130.335 7.012 130.907 6.6 131.579 6.312C132.259 6.016 133.027 5.868 133.883 5.868ZM133.883 17.256C134.595 17.256 135.215 17.136 135.743 16.896C136.279 16.648 136.723 16.296 137.075 15.84C137.435 15.384 137.703 14.836 137.879 14.196C138.055 13.548 138.143 12.824 138.143 12.024C138.143 11.232 138.055 10.512 137.879 9.864C137.703 9.216 137.435 8.664 137.075 8.208C136.723 7.744 136.279 7.388 135.743 7.14C135.215 6.892 134.595 6.768 133.883 6.768C133.171 6.768 132.547 6.892 132.011 7.14C131.483 7.388 131.039 7.744 130.679 8.208C130.327 8.664 130.059 9.216 129.875 9.864C129.699 10.512 129.611 11.232 129.611 12.024C129.611 12.824 129.699 13.548 129.875 14.196C130.059 14.836 130.327 15.384 130.679 15.84C131.039 16.296 131.483 16.648 132.011 16.896C132.547 17.136 133.171 17.256 133.883 17.256ZM143.795 0.539999V18H142.655V0.539999H143.795ZM152.514 5.868C153.186 5.868 153.806 5.984 154.374 6.216C154.95 6.448 155.446 6.788 155.862 7.236C156.286 7.676 156.614 8.22 156.846 8.868C157.086 9.516 157.206 10.26 157.206 11.1C157.206 11.276 157.178 11.396 157.122 11.46C157.074 11.524 156.994 11.556 156.882 11.556H148.254V11.784C148.254 12.68 148.358 13.468 148.566 14.148C148.774 14.828 149.07 15.4 149.454 15.864C149.838 16.32 150.302 16.664 150.846 16.896C151.39 17.128 151.998 17.244 152.67 17.244C153.27 17.244 153.79 17.18 154.23 17.052C154.67 16.916 155.038 16.768 155.334 16.608C155.638 16.44 155.878 16.292 156.054 16.164C156.23 16.028 156.358 15.96 156.438 15.96C156.542 15.96 156.622 16 156.678 16.08L156.99 16.464C156.798 16.704 156.542 16.928 156.222 17.136C155.91 17.344 155.558 17.524 155.166 17.676C154.782 17.82 154.366 17.936 153.918 18.024C153.478 18.112 153.034 18.156 152.586 18.156C151.77 18.156 151.026 18.016 150.354 17.736C149.682 17.448 149.106 17.032 148.626 16.488C148.146 15.944 147.774 15.28 147.51 14.496C147.254 13.704 147.126 12.8 147.126 11.784C147.126 10.928 147.246 10.14 147.486 9.42C147.734 8.692 148.086 8.068 148.542 7.548C149.006 7.02 149.57 6.608 150.234 6.312C150.906 6.016 151.666 5.868 152.514 5.868ZM152.526 6.72C151.91 6.72 151.358 6.816 150.87 7.008C150.382 7.2 149.958 7.476 149.598 7.836C149.246 8.196 148.958 8.628 148.734 9.132C148.518 9.636 148.374 10.2 148.302 10.824H156.174C156.174 10.184 156.086 9.612 155.91 9.108C155.734 8.596 155.486 8.164 155.166 7.812C154.846 7.46 154.462 7.192 154.014 7.008C153.566 6.816 153.07 6.72 152.526 6.72ZM161.748 6.06V19.524C161.748 19.94 161.688 20.324 161.568 20.676C161.448 21.028 161.268 21.332 161.028 21.588C160.796 21.852 160.5 22.056 160.14 22.2C159.788 22.352 159.372 22.428 158.892 22.428C158.66 22.428 158.452 22.408 158.268 22.368C158.084 22.328 157.904 22.264 157.728 22.176L157.788 21.6C157.796 21.504 157.852 21.456 157.956 21.456C158.02 21.456 158.112 21.472 158.232 21.504C158.344 21.536 158.5 21.552 158.7 21.552C159.348 21.552 159.828 21.376 160.14 21.024C160.452 20.672 160.608 20.172 160.608 19.524V6.06H161.748ZM162.252 1.944C162.252 2.088 162.22 2.224 162.156 2.352C162.1 2.472 162.024 2.58 161.928 2.676C161.832 2.772 161.72 2.848 161.592 2.904C161.464 2.96 161.328 2.988 161.184 2.988C161.04 2.988 160.904 2.96 160.776 2.904C160.648 2.848 160.536 2.772 160.44 2.676C160.344 2.58 160.268 2.472 160.212 2.352C160.156 2.224 160.128 2.088 160.128 1.944C160.128 1.8 160.156 1.664 160.212 1.536C160.268 1.4 160.344 1.284 160.44 1.188C160.536 1.092 160.648 1.016 160.776 0.959999C160.904 0.903999 161.04 0.875999 161.184 0.875999C161.328 0.875999 161.464 0.903999 161.592 0.959999C161.72 1.016 161.832 1.092 161.928 1.188C162.024 1.284 162.1 1.4 162.156 1.536C162.22 1.664 162.252 1.8 162.252 1.944ZM170.469 5.868C171.325 5.868 172.089 6.016 172.761 6.312C173.441 6.6 174.013 7.012 174.477 7.548C174.941 8.084 175.293 8.732 175.533 9.492C175.781 10.244 175.905 11.088 175.905 12.024C175.905 12.96 175.781 13.804 175.533 14.556C175.293 15.308 174.941 15.952 174.477 16.488C174.013 17.024 173.441 17.436 172.761 17.724C172.089 18.012 171.325 18.156 170.469 18.156C169.613 18.156 168.845 18.012 168.165 17.724C167.493 17.436 166.921 17.024 166.449 16.488C165.985 15.952 165.629 15.308 165.381 14.556C165.141 13.804 165.021 12.96 165.021 12.024C165.021 11.088 165.141 10.244 165.381 9.492C165.629 8.732 165.985 8.084 166.449 7.548C166.921 7.012 167.493 6.6 168.165 6.312C168.845 6.016 169.613 5.868 170.469 5.868ZM170.469 17.256C171.181 17.256 171.801 17.136 172.329 16.896C172.865 16.648 173.309 16.296 173.661 15.84C174.021 15.384 174.289 14.836 174.465 14.196C174.641 13.548 174.729 12.824 174.729 12.024C174.729 11.232 174.641 10.512 174.465 9.864C174.289 9.216 174.021 8.664 173.661 8.208C173.309 7.744 172.865 7.388 172.329 7.14C171.801 6.892 171.181 6.768 170.469 6.768C169.757 6.768 169.133 6.892 168.597 7.14C168.069 7.388 167.625 7.744 167.265 8.208C166.913 8.664 166.645 9.216 166.461 9.864C166.285 10.512 166.197 11.232 166.197 12.024C166.197 12.824 166.285 13.548 166.461 14.196C166.645 14.836 166.913 15.384 167.265 15.84C167.625 16.296 168.069 16.648 168.597 16.896C169.133 17.136 169.757 17.256 170.469 17.256Z" fill="white"/>
</svg>
